<svg width="16" height="16" viewBox="0 0 16 16" fill="none" xmlns="http://www.w3.org/2000/svg">
<path d="M8.77316 8.87378C8.88995 9.06614 9.00674 9.23788 9.12353 9.40963C9.31589 8.89439 9.41893 8.33793 9.41893 7.75398C9.41893 5.12967 7.28926 3 4.66495 3C2.89938 3 1.35365 3.96866 0.536133 5.3976C1.28495 4.36024 2.49406 3.68699 3.86804 3.68699C6.13511 3.68699 7.97625 5.52813 7.97625 7.7952C7.97625 7.80894 7.97625 7.82268 7.97625 7.83642C8.24418 8.11122 8.5121 8.45471 8.77316 8.87378Z" fill="#008080"/>
<path d="M7.41243 9.86304C6.69796 11.079 5.37894 11.8965 3.86756 11.8965C2.66532 11.8965 1.57988 11.3813 0.831055 10.5569C1.69666 11.7317 3.09126 12.5011 4.66447 12.5011C6.01784 12.5011 7.24069 11.9309 8.1063 11.0241C8.0376 10.9279 7.97577 10.8248 7.91394 10.7149C7.7628 10.4401 7.59105 10.1516 7.41243 9.86304Z" fill="#008080"/>
<path d="M16.0005 12.0958C16.0005 12.0958 14.6814 11.0584 12.6411 11.9309C10.6007 12.8034 8.89011 12.8308 7.91458 11.079C6.93905 9.32719 5.46889 7.08759 3.07129 9.05239C3.07129 9.05239 4.04682 7.70589 5.36584 7.36926C6.68486 7.03951 7.76344 7.62345 8.77332 9.23101C9.77633 10.8386 10.5114 11.6011 12.4006 11.2714C14.2899 10.9416 15.5471 11.0034 16.0005 12.0958Z" fill="#008080"/>
<path d="M4.49282 4.76559C5.34469 4.76559 6.11412 5.10909 6.67059 5.66555C6.0042 4.72437 4.91189 4.10608 3.66843 4.10608C1.78608 4.10608 0.233475 5.52128 0.0205078 7.34181C0.336524 7.43799 0.789938 7.51356 1.4151 7.56852C1.56624 5.99531 2.88526 4.76559 4.49282 4.76559Z" fill="#008080"/>
<path d="M1.40833 7.85014C1.40833 7.75396 1.4152 7.65779 1.42207 7.56161C0.790041 7.51352 0.343496 7.43108 0.0274798 7.3349C0.0137399 7.47917 0 7.62344 0 7.77457C0 9.8012 1.64191 11.45 3.6754 11.45C4.67841 11.45 5.58524 11.0515 6.25162 10.3989C5.75699 10.7424 5.15244 10.9416 4.49979 10.9416C2.78919 10.9416 1.40833 9.56075 1.40833 7.85014Z" fill="#008080"/>
</svg>
